<?xml version="1.0" encoding="UTF-8" standalone="no"?>
<svg
   xmlns:dc="http://purl.org/dc/elements/1.1/"
   xmlns:cc="http://creativecommons.org/ns#"
   xmlns:rdf="http://www.w3.org/1999/02/22-rdf-syntax-ns#"
   xmlns:svg="http://www.w3.org/2000/svg"
   xmlns="http://www.w3.org/2000/svg"
   viewBox="0 0 666.66669 293.33334"
   height="293.33334"
   width="666.66669"
   xml:space="preserve"
   id="svg2"
   version="1.1"><metadata
     id="metadata8"><rdf:RDF><cc:Work
         rdf:about=""><dc:format>image/svg+xml</dc:format><dc:type
           rdf:resource="http://purl.org/dc/dcmitype/StillImage" /></cc:Work></rdf:RDF></metadata><defs
     id="defs6"><clipPath
       id="clipPath18"
       clipPathUnits="userSpaceOnUse"><path
         id="path16"
         d="M 0,220 H 500 V 0 H 0 Z" /></clipPath></defs><g
     transform="matrix(1.3333333,0,0,-1.3333333,0,293.33333)"
     id="g10"><g
       id="g12"><g
         clip-path="url(#clipPath18)"
         id="g14"><g
           transform="translate(493.55,69.7)"
           id="g20"><path
             id="path22"
             style="fill:#ffffff;fill-opacity:1;fill-rule:nonzero;stroke:none"
             d="m 0,0 6.4,7.8 -33.15,22.3 c -3.933,2.533 -10.05,3.9 -18.35,4.1 l -3.7,0.05 c -8.967,-0.1 -15.517,-1.483 -19.65,-4.15 l -26.75,-18 -26.7,18 c -3.967,2.533 -10.1,3.9 -18.4,4.1 l -3.7,0.05 c -8.933,-0.1 -15.483,-1.483 -19.65,-4.15 l -29.4,-19.75 c -3.733,22.3 -7.6,42.05 -11.6,59.25 -2.4,7.067 -4.583,11.8 -6.55,14.2 -3.833,4.733 -8.033,7.017 -12.6,6.85 h -39.55 c -4.6,0.167 -8.8,-2.117 -12.6,-6.85 -1.967,-2.4 -4.167,-7.133 -6.6,-14.2 -3.967,-17.2 -7.833,-36.95 -11.6,-59.25 L -323.5,30.1 c -4.167,2.667 -10.733,4.05 -19.7,4.15 l -3.7,-0.05 c -8.3,-0.2 -14.417,-1.567 -18.35,-4.1 l -26.75,-18 -26.7,18 c -4.133,2.667 -10.683,4.05 -19.65,4.15 l -3.7,-0.05 c -8.3,-0.2 -14.433,-1.567 -18.4,-4.1 l -33.1,-22.3 6.4,-7.8 25.35,11.45 h 2.3 V -69.4 h 39.85 v 80.85 h 2.35 L -392,0 l 25.35,11.45 h 2.35 V -69.4 h 39.85 v 80.85 h 2.3 L -296.8,0 h 16.85 l 8.75,43.4 c 0.5,1.7 1.967,2.45 4.4,2.25 h 3.45 V -69.4 h 39.55 V 45.65 h 3.45 c 2.433,0.2 3.9,-0.55 4.4,-2.25 L -207.2,0 h 16.85 L -165,11.45 h 2.3 V -69.4 h 39.85 v 80.85 h 2.35 L -95.2,0 -69.85,11.45 h 2.3 V -69.4 h 39.9 v 80.85 h 2.3 z m -48.5,76.7 c -4.767,-0.167 -8.85,-1.9 -12.25,-5.2 -3.6,-3.5 -5.4,-7.733 -5.4,-12.7 0,-5 1.8,-9.233 5.4,-12.7 3.4,-3.333 7.483,-5.1 12.25,-5.3 h 1.8 c 4.8,0.2 8.883,1.967 12.25,5.3 3.6,3.467 5.4,7.7 5.4,12.7 0,4.967 -1.8,9.2 -5.4,12.7 -3.367,3.3 -7.45,5.033 -12.25,5.2 h -1.8 m -81.1,-5.2 c -3.4,3.3 -7.483,5.033 -12.25,5.2 h -1.85 c -4.767,-0.167 -8.85,-1.9 -12.25,-5.2 -3.567,-3.5 -5.35,-7.733 -5.35,-12.7 0,-5 1.783,-9.233 5.35,-12.7 3.4,-3.333 7.483,-5.1 12.25,-5.3 h 1.85 c 4.767,0.2 8.85,1.967 12.25,5.3 3.567,3.467 5.35,7.7 5.35,12.7 0,4.967 -1.783,9.2 -5.35,12.7 m -89.75,55.25 c 0,6.533 -2.35,12.117 -7.05,16.75 -4.467,4.333 -9.817,6.6 -16.05,6.8 h -2.25 c -6.267,-0.2 -11.617,-2.467 -16.05,-6.8 -4.7,-4.633 -7.05,-10.217 -7.05,-16.75 0,-6.5 2.35,-12.033 7.05,-16.6 4.433,-4.4 9.783,-6.733 16.05,-7 h 2.25 c 6.233,0.267 11.583,2.6 16.05,7 4.7,4.567 7.05,10.1 7.05,16.6 M -325.85,58.8 c 0,4.967 -1.8,9.2 -5.4,12.7 -3.367,3.3 -7.433,5.033 -12.2,5.2 h -1.85 c -4.767,-0.167 -8.85,-1.9 -12.25,-5.2 -3.6,-3.5 -5.4,-7.733 -5.4,-12.7 0,-5 1.8,-9.233 5.4,-12.7 3.4,-3.333 7.483,-5.1 12.25,-5.3 h 1.85 c 4.767,0.2 8.833,1.967 12.2,5.3 3.6,3.467 5.4,7.7 5.4,12.7 m -112.8,17.9 h -1.85 c -4.767,-0.167 -8.85,-1.9 -12.25,-5.2 -3.567,-3.5 -5.35,-7.733 -5.35,-12.7 0,-5 1.783,-9.233 5.35,-12.7 3.4,-3.333 7.483,-5.1 12.25,-5.3 h 1.85 c 4.767,0.2 8.85,1.967 12.25,5.3 3.6,3.467 5.4,7.7 5.4,12.7 0,4.967 -1.8,9.2 -5.4,12.7 -3.4,3.3 -7.483,5.033 -12.25,5.2" /></g></g></g></g></svg>